{
    "asset" : {
        "generator" : "Khronos glTF Blender I/O v1.1.46",
        "version" : "2.0"
    },
    "scene" : 0,
    "scenes" : [
        {
            "name" : "Scene",
            "nodes" : [
                0
            ]
        }
    ],
    "nodes" : [
        {
            "mesh" : 0,
            "name" : "club",
            "rotation" : [
                0.7071067690849304,
                0,
                0,
                0.7071067690849304
            ],
            "scale" : [
                0.06585222482681274,
                0.06585222482681274,
                0.06585222482681274
            ]
        }
    ],
    "materials" : [
        {
            "doubleSided" : true,
            "emissiveFactor" : [
                0,
                0,
                0
            ],
            "name" : "manche_club-tex-map_Circle.0",
            "pbrMetallicRoughness" : {
                "baseColorFactor" : [
                    0.800000011920929,
                    0.800000011920929,
                    0.800000011920929,
                    1
                ],
                "metallicFactor" : 0,
                "roughnessFactor" : 0.5
            }
        },
        {
            "doubleSided" : true,
            "emissiveFactor" : [
                0,
                0,
                0
            ],
            "name" : "cache",
            "pbrMetallicRoughness" : {
                "baseColorFactor" : [
                    0.800000011920929,
                    0.800000011920929,
                    0.800000011920929,
                    1
                ],
                "metallicFactor" : 0,
                "roughnessFactor" : 0.5
            }
        },
        {
            "doubleSided" : true,
            "emissiveFactor" : [
                0,
                0,
                0
            ],
            "name" : "embout",
            "pbrMetallicRoughness" : {
                "baseColorFactor" : [
                    0.800000011920929,
                    0.800000011920929,
                    0.800000011920929,
                    1
                ],
                "metallicFactor" : 0,
                "roughnessFactor" : 0.5
            }
        },
        {
            "doubleSided" : true,
            "emissiveFactor" : [
                0,
                0,
                0
            ],
            "name" : "bulbe",
            "pbrMetallicRoughness" : {
                "baseColorFactor" : [
                    0.800000011920929,
                    0.800000011920929,
                    0.800000011920929,
                    1
                ],
                "metallicFactor" : 0,
                "roughnessFactor" : 0.5
            }
        },
        {
            "doubleSided" : true,
            "emissiveFactor" : [
                0,
                0,
                0
            ],
            "name" : "scotch",
            "pbrMetallicRoughness" : {
                "baseColorFactor" : [
                    0.800000011920929,
                    0.800000011920929,
                    0.800000011920929,
                    1
                ],
                "metallicFactor" : 0,
                "roughnessFactor" : 0.5
            }
        },
        {
            "doubleSided" : true,
            "emissiveFactor" : [
                0,
                0,
                0
            ],
            "name" : "(null)",
            "pbrMetallicRoughness" : {
                "baseColorFactor" : [
                    0.800000011920929,
                    0.800000011920929,
                    0.800000011920929,
                    1
                ],
                "metallicFactor" : 0,
                "roughnessFactor" : 0.5
            }
        }
    ],
    "meshes" : [
        {
            "name" : "club",
            "primitives" : [
                {
                    "attributes" : {
                        "POSITION" : 0,
                        "NORMAL" : 1,
                        "TEXCOORD_0" : 2
                    },
                    "indices" : 3,
                    "material" : 0
                },
                {
                    "attributes" : {
                        "POSITION" : 4,
                        "NORMAL" : 5,
                        "TEXCOORD_0" : 6
                    },
                    "indices" : 7,
                    "material" : 1
                },
                {
                    "attributes" : {
                        "POSITION" : 8,
                        "NORMAL" : 9,
                        "TEXCOORD_0" : 10
                    },
                    "indices" : 11,
                    "material" : 2
                },
                {
                    "attributes" : {
                        "POSITION" : 12,
                        "NORMAL" : 13,
                        "TEXCOORD_0" : 14
                    },
                    "indices" : 15,
                    "material" : 3
                },
                {
                    "attributes" : {
                        "POSITION" : 16,
                        "NORMAL" : 17,
                        "TEXCOORD_0" : 18
                    },
                    "indices" : 19,
                    "material" : 4
                },
                {
                    "attributes" : {
                        "POSITION" : 20,
                        "NORMAL" : 21,
                        "TEXCOORD_0" : 22
                    },
                    "indices" : 23,
                    "material" : 5
                }
            ]
        }
    ],
    "accessors" : [
        {
            "bufferView" : 0,
            "componentType" : 5126,
            "count" : 34,
            "max" : [
                0.8999999761581421,
                0.8999990224838257,
                -1.2000000476837158
            ],
            "min" : [
                -0.8999999761581421,
                -0.9000009894371033,
                -14.199999809265137
            ],
            "type" : "VEC3"
        },
        {
            "bufferView" : 1,
            "componentType" : 5126,
            "count" : 34,
            "type" : "VEC3"
        },
        {
            "bufferView" : 2,
            "componentType" : 5126,
            "count" : 34,
            "type" : "VEC2"
        },
        {
            "bufferView" : 3,
            "componentType" : 5123,
            "count" : 96,
            "type" : "SCALAR"
        },
        {
            "bufferView" : 4,
            "componentType" : 5126,
            "count" : 148,
            "max" : [
                0.36000001430511475,
                0.35999900102615356,
                -30.19277000427246
            ],
            "min" : [
                -0.36000001430511475,
                -0.36000099778175354,
                -30.21271514892578
            ],
            "type" : "VEC3"
        },
        {
            "bufferView" : 5,
            "componentType" : 5126,
            "count" : 148,
            "type" : "VEC3"
        },
        {
            "bufferView" : 6,
            "componentType" : 5126,
            "count" : 148,
            "type" : "VEC2"
        },
        {
            "bufferView" : 7,
            "componentType" : 5123,
            "count" : 180,
            "type" : "SCALAR"
        },
        {
            "bufferView" : 8,
            "componentType" : 5126,
            "count" : 803,
            "max" : [
                1.100000023841858,
                1.100000023841858,
                0.019982999190688133
            ],
            "min" : [
                -1.100000023841858,
                -1.100000023841858,
                -30.200000762939453
            ],
            "type" : "VEC3"
        },
        {
            "bufferView" : 9,
            "componentType" : 5126,
            "count" : 803,
            "type" : "VEC3"
        },
        {
            "bufferView" : 10,
            "componentType" : 5126,
            "count" : 803,
            "type" : "VEC2"
        },
        {
            "bufferView" : 11,
            "componentType" : 5123,
            "count" : 1188,
            "type" : "SCALAR"
        },
        {
            "bufferView" : 12,
            "componentType" : 5126,
            "count" : 192,
            "max" : [
                1.9800000190734863,
                1.9799989461898804,
                -14
            ],
            "min" : [
                -1.9800000190734863,
                -1.9800009727478027,
                -30
            ],
            "type" : "VEC3"
        },
        {
            "bufferView" : 13,
            "componentType" : 5126,
            "count" : 192,
            "type" : "VEC3"
        },
        {
            "bufferView" : 14,
            "componentType" : 5126,
            "count" : 192,
            "type" : "VEC2"
        },
        {
            "bufferView" : 15,
            "componentType" : 5123,
            "count" : 288,
            "type" : "SCALAR"
        },
        {
            "bufferView" : 16,
            "componentType" : 5126,
            "count" : 64,
            "max" : [
                0.9603000283241272,
                0.960299015045166,
                -13.5
            ],
            "min" : [
                -0.9603000283241272,
                -0.9603009819984436,
                -14.399999618530273
            ],
            "type" : "VEC3"
        },
        {
            "bufferView" : 17,
            "componentType" : 5126,
            "count" : 64,
            "type" : "VEC3"
        },
        {
            "bufferView" : 18,
            "componentType" : 5126,
            "count" : 64,
            "type" : "VEC2"
        },
        {
            "bufferView" : 19,
            "componentType" : 5123,
            "count" : 96,
            "type" : "SCALAR"
        },
        {
            "bufferView" : 20,
            "componentType" : 5126,
            "count" : 42,
            "max" : [
                0.11664000153541565,
                0.11664000153541565,
                0.019982999190688133
            ],
            "min" : [
                -0.11664000153541565,
                -0.11664000153541565,
                0.019982999190688133
            ],
            "type" : "VEC3"
        },
        {
            "bufferView" : 21,
            "componentType" : 5126,
            "count" : 42,
            "type" : "VEC3"
        },
        {
            "bufferView" : 22,
            "componentType" : 5126,
            "count" : 42,
            "type" : "VEC2"
        },
        {
            "bufferView" : 23,
            "componentType" : 5123,
            "count" : 42,
            "type" : "SCALAR"
        }
    ],
    "bufferViews" : [
        {
            "buffer" : 0,
            "byteLength" : 408,
            "byteOffset" : 0
        },
        {
            "buffer" : 0,
            "byteLength" : 408,
            "byteOffset" : 408
        },
        {
            "buffer" : 0,
            "byteLength" : 272,
            "byteOffset" : 816
        },
        {
            "buffer" : 0,
            "byteLength" : 192,
            "byteOffset" : 1088
        },
        {
            "buffer" : 0,
            "byteLength" : 1776,
            "byteOffset" : 1280
        },
        {
            "buffer" : 0,
            "byteLength" : 1776,
            "byteOffset" : 3056
        },
        {
            "buffer" : 0,
            "byteLength" : 1184,
            "byteOffset" : 4832
        },
        {
            "buffer" : 0,
            "byteLength" : 360,
            "byteOffset" : 6016
        },
        {
            "buffer" : 0,
            "byteLength" : 9636,
            "byteOffset" : 6376
        },
        {
            "buffer" : 0,
            "byteLength" : 9636,
            "byteOffset" : 16012
        },
        {
            "buffer" : 0,
            "byteLength" : 6424,
            "byteOffset" : 25648
        },
        {
            "buffer" : 0,
            "byteLength" : 2376,
            "byteOffset" : 32072
        },
        {
            "buffer" : 0,
            "byteLength" : 2304,
            "byteOffset" : 34448
        },
        {
            "buffer" : 0,
            "byteLength" : 2304,
            "byteOffset" : 36752
        },
        {
            "buffer" : 0,
            "byteLength" : 1536,
            "byteOffset" : 39056
        },
        {
            "buffer" : 0,
            "byteLength" : 576,
            "byteOffset" : 40592
        },
        {
            "buffer" : 0,
            "byteLength" : 768,
            "byteOffset" : 41168
        },
        {
            "buffer" : 0,
            "byteLength" : 768,
            "byteOffset" : 41936
        },
        {
            "buffer" : 0,
            "byteLength" : 512,
            "byteOffset" : 42704
        },
        {
            "buffer" : 0,
            "byteLength" : 192,
            "byteOffset" : 43216
        },
        {
            "buffer" : 0,
            "byteLength" : 504,
            "byteOffset" : 43408
        },
        {
            "buffer" : 0,
            "byteLength" : 504,
            "byteOffset" : 43912
        },
        {
            "buffer" : 0,
            "byteLength" : 336,
            "byteOffset" : 44416
        },
        {
            "buffer" : 0,
            "byteLength" : 84,
            "byteOffset" : 44752
        }
    ],
    "buffers" : [
        {
            "byteLength" : 44836,
            "uri" : "data:application/octet-stream;base64,"
        }
    ]
}
