{
    "asset" : {
        "generator" : "Khronos glTF Blender I/O v1.1.46",
        "version" : "2.0"
    },
    "scene" : 0,
    "scenes" : [
        {
            "name" : "Scene",
            "nodes" : [
                0,
                1,
                2,
                15
            ]
        }
    ],
    "nodes" : [
        {
            "name" : "Lamp",
            "rotation" : [
                0.16907575726509094,
                0.7558803558349609,
                -0.27217137813568115,
                0.570947527885437
            ],
            "translation" : [
                4.076245307922363,
                5.903861999511719,
                -1.0054539442062378
            ]
        },
        {
            "name" : "Camera",
            "rotation" : [
                0.483536034822464,
                0.33687159419059753,
                -0.20870360732078552,
                0.7804827094078064
            ],
            "translation" : [
                7.481131553649902,
                5.34366512298584,
                6.5076398849487305
            ]
        },
        {
            "name" : "Node.002"
        },
        {
            "name" : "Bone.005",
            "rotation" : [
                0.7071068286895752,
                -3.923325309074244e-08,
                -5.338507946817117e-08,
                0.7071067094802856
            ],
            "translation" : [
                -3.540149950964633e-09,
                2.148526906967163,
                -2.042810365310288e-14
            ]
        },
        {
            "children" : [
                3
            ],
            "name" : "Bone.004",
            "rotation" : [
                -5.457894403093633e-08,
                4.0427114100793915e-08,
                -0.7071068286895752,
                0.7071068286895752
            ],
            "translation" : [
                0,
                1.0325534343719482,
                0
            ]
        },
        {
            "children" : [
                4
            ],
            "name" : "Bone",
            "translation" : [
                -0.06380452960729599,
                -2.788984376778103e-09,
                0
            ]
        },
        {
            "name" : "Bone.003",
            "rotation" : [
                -0.5852988362312317,
                -4.211459980751897e-08,
                -0.3958021104335785,
                0.7076482176780701
            ],
            "scale" : [
                0.9999999403953552,
                0.9999998807907104,
                0.9999998807907104
            ],
            "translation" : [
                2.8870999813079834e-08,
                2.1272127628326416,
                2.3748725652694702e-08
            ]
        },
        {
            "children" : [
                6
            ],
            "name" : "Bone.002",
            "rotation" : [
                0.23670336604118347,
                0.18027549982070923,
                -0.6575141549110413,
                0.6922048330307007
            ],
            "scale" : [
                1,
                1.0000001192092896,
                0.9999999403953552
            ],
            "translation" : [
                -2.561137080192566e-09,
                1.0389147996902466,
                4.656612873077393e-10
            ]
        },
        {
            "children" : [
                7
            ],
            "name" : "Bone.001",
            "rotation" : [
                0.9988915920257568,
                0.009212951175868511,
                0.046094853430986404,
                0.002459877636283636
            ],
            "scale" : [
                0.9999999403953552,
                1,
                1
            ],
            "translation" : [
                -0.06380452960729599,
                -2.788984376778103e-09,
                0
            ]
        },
        {
            "name" : "Bone.009",
            "rotation" : [
                0.01600983366370201,
                -9.552804769441536e-09,
                -1.4637868694933331e-10,
                0.9998718500137329
            ],
            "translation" : [
                -6.483702463810914e-14,
                2.605902910232544,
                4.241051954068098e-14
            ]
        },
        {
            "children" : [
                9
            ],
            "name" : "Bone.008",
            "rotation" : [
                -0.10986597090959549,
                3.146613636317852e-08,
                3.4321296915607036e-09,
                0.9939464330673218
            ],
            "translation" : [
                -1.687538997430238e-14,
                3.072298288345337,
                1.949983285953749e-09
            ]
        },
        {
            "name" : "Bone.011",
            "rotation" : [
                0.0019024198409169912,
                5.190472052163386e-08,
                2.1271311101411783e-10,
                0.9999982118606567
            ],
            "scale" : [
                1,
                0.9999999403953552,
                1
            ],
            "translation" : [
                -7.460698725481052e-14,
                2.612030029296875,
                1.1920920428565296e-07
            ]
        },
        {
            "children" : [
                11
            ],
            "name" : "Bone.010",
            "rotation" : [
                0.11380016058683395,
                6.10003780820989e-08,
                -1.7240878169566543e-10,
                0.9935036897659302
            ],
            "scale" : [
                1,
                1.0000001192092896,
                1
            ],
            "translation" : [
                -1.687538997430238e-14,
                3.072298288345337,
                1.949983285953749e-09
            ]
        },
        {
            "children" : [
                10,
                12
            ],
            "name" : "Bone.007",
            "rotation" : [
                -0.5016528964042664,
                -0.4983416795730591,
                -0.5016528367996216,
                0.49834176898002625
            ],
            "scale" : [
                0.9999999403953552,
                0.9999999403953552,
                1
            ],
            "translation" : [
                -0.06380452960729599,
                -2.788984376778103e-09,
                0
            ]
        },
        {
            "mesh" : 0,
            "name" : "juggler",
            "skin" : 0
        },
        {
            "children" : [
                14,
                5,
                8,
                13
            ],
            "name" : "Armature.001",
            "rotation" : [
                0,
                0,
                -0.7071067690849304,
                0.7071067690849304
            ],
            "scale" : [
                0.39118891954421997,
                0.39118891954421997,
                0.39118891954421997
            ],
            "translation" : [
                0.004988998174667358,
                3.040694236755371,
                0.001841127872467041
            ]
        }
    ],
    "meshes" : [
        {
            "name" : "Sphere.006",
            "primitives" : [
                {
                    "attributes" : {
                        "POSITION" : 0,
                        "NORMAL" : 1,
                        "JOINTS_0" : 2,
                        "WEIGHTS_0" : 3
                    },
                    "indices" : 4
                }
            ]
        }
    ],
    "skins" : [
        {
            "inverseBindMatrices" : 5,
            "joints" : [
                5,
                4,
                3,
                8,
                7,
                6,
                13,
                10,
                9,
                12,
                11
            ],
            "name" : "Armature.001"
        }
    ],
    "accessors" : [
        {
            "bufferView" : 0,
            "componentType" : 5126,
            "count" : 15808,
            "max" : [
                0.48757800459861755,
                3.604999303817749,
                0.7999999523162842
            ],
            "min" : [
                -0.4875779449939728,
                -0.12951713800430298,
                -0.2049998790025711
            ],
            "type" : "VEC3"
        },
        {
            "bufferView" : 1,
            "componentType" : 5126,
            "count" : 15808,
            "type" : "VEC3"
        },
        {
            "bufferView" : 2,
            "componentType" : 5123,
            "count" : 15808,
            "type" : "VEC4"
        },
        {
            "bufferView" : 3,
            "componentType" : 5126,
            "count" : 15808,
            "type" : "VEC4"
        },
        {
            "bufferView" : 4,
            "componentType" : 5123,
            "count" : 23880,
            "type" : "SCALAR"
        },
        {
            "bufferView" : 5,
            "componentType" : 5126,
            "count" : 11,
            "type" : "MAT4"
        }
    ],
    "bufferViews" : [
        {
            "buffer" : 0,
            "byteLength" : 189696,
            "byteOffset" : 0
        },
        {
            "buffer" : 0,
            "byteLength" : 189696,
            "byteOffset" : 189696
        },
        {
            "buffer" : 0,
            "byteLength" : 126464,
            "byteOffset" : 379392
        },
        {
            "buffer" : 0,
            "byteLength" : 252928,
            "byteOffset" : 505856
        },
        {
            "buffer" : 0,
            "byteLength" : 47760,
            "byteOffset" : 758784
        },
        {
            "buffer" : 0,
            "byteLength" : 704,
            "byteOffset" : 806544
        }
    ],
    "buffers" : [
        {
            "byteLength" : 807248,
            "uri" : "juggler01.bin"
        }
    ]
}
