{
    "asset" : {
        "generator" : "Khronos glTF Blender I/O v1.1.46",
        "version" : "2.0"
    },
    "scene" : 0,
    "scenes" : [
        {
            "name" : "Scene",
            "nodes" : [
                22,
                23,
                24
            ]
        }
    ],
    "nodes" : [
        {
            "name" : "head",
            "rotation" : [
                -0.04984075576066971,
                -0.9876925349235535,
                0.11165354400873184,
                0.09753444045782089
            ],
            "scale" : [
                0.9999999403953552,
                1.0000003576278687,
                0.9999999403953552
            ],
            "translation" : [
                -3.3760443329811096e-09,
                0.32309114933013916,
                3.1468516681343317e-09
            ]
        },
        {
            "children" : [
                0
            ],
            "name" : "neck",
            "rotation" : [
                0.19391362369060516,
                -0.06348336488008499,
                -0.06003810465335846,
                0.9771197438240051
            ],
            "scale" : [
                1,
                1,
                0.9999998807907104
            ],
            "translation" : [
                -1.1523679788183472e-08,
                0.9988013505935669,
                0.09590189903974533
            ]
        },
        {
            "name" : "rHand",
            "rotation" : [
                0.2597333490848541,
                -0.13434478640556335,
                0.09257060289382935,
                0.9517987370491028
            ],
            "scale" : [
                1,
                0.9999999403953552,
                0.9999998807907104
            ],
            "translation" : [
                4.0978193283081055e-08,
                1.065669298171997,
                1.1175870895385742e-07
            ]
        },
        {
            "children" : [
                2
            ],
            "name" : "rForeArm",
            "rotation" : [
                0.3376326858997345,
                -0.12412993609905243,
                -0.24146103858947754,
                0.901272714138031
            ],
            "scale" : [
                1,
                1,
                0.9999999403953552
            ],
            "translation" : [
                7.404014468193054e-08,
                1.270365834236145,
                1.862645149230957e-08
            ]
        },
        {
            "children" : [
                3
            ],
            "name" : "rShldr",
            "rotation" : [
                0.06385581940412521,
                -0.2801554501056671,
                0.4933111071586609,
                0.8210234642028809
            ],
            "translation" : [
                -6.332993507385254e-08,
                0.40997782349586487,
                -1.4901161193847656e-08
            ]
        },
        {
            "children" : [
                4
            ],
            "name" : "rCollar",
            "rotation" : [
                0.18828994035720825,
                -0.07454787194728851,
                0.7649141550064087,
                0.6114702224731445
            ],
            "scale" : [
                0.9999998807907104,
                1,
                1
            ],
            "translation" : [
                -0.12070079147815704,
                0.8929141759872437,
                -0.04795099049806595
            ]
        },
        {
            "name" : "lHand",
            "rotation" : [
                0.28379273414611816,
                0.2591991424560547,
                -0.15501821041107178,
                0.9100806713104248
            ],
            "scale" : [
                1,
                1,
                1.0000001192092896
            ],
            "translation" : [
                -1.4901161193847656e-08,
                1.0656695365905762,
                2.2351741790771484e-08
            ]
        },
        {
            "children" : [
                6
            ],
            "name" : "lForeArm",
            "rotation" : [
                0.35380324721336365,
                0.122083880007267,
                0.2553251385688782,
                0.8914751410484314
            ],
            "scale" : [
                1,
                0.9999999403953552,
                1
            ],
            "translation" : [
                7.28759914636612e-08,
                1.2703660726547241,
                0
            ]
        },
        {
            "children" : [
                7
            ],
            "name" : "lShldr",
            "rotation" : [
                0.005865215323865414,
                0.09781867265701294,
                -0.589072585105896,
                0.802116334438324
            ],
            "scale" : [
                1.0000001192092896,
                1,
                1
            ],
            "translation" : [
                7.078051567077637e-08,
                0.40997782349586487,
                -2.2351741790771484e-08
            ]
        },
        {
            "children" : [
                8
            ],
            "name" : "lCollar",
            "rotation" : [
                0.1882900893688202,
                0.07454785704612732,
                -0.7649142146110535,
                0.6114701628684998
            ],
            "scale" : [
                1,
                0.9999999403953552,
                1
            ],
            "translation" : [
                0.12070080637931824,
                0.8929141163825989,
                -0.04795096069574356
            ]
        },
        {
            "children" : [
                1,
                5,
                9
            ],
            "name" : "chest",
            "rotation" : [
                -0.21703077852725983,
                0.002745941048488021,
                0.026432517915964127,
                0.975803017616272
            ],
            "scale" : [
                0.9999999403953552,
                0.9999998807907104,
                1
            ],
            "translation" : [
                -2.025221895567142e-16,
                0.5271506309509277,
                1.862645149230957e-09
            ]
        },
        {
            "children" : [
                10
            ],
            "name" : "abdomen",
            "rotation" : [
                -0.07279679924249649,
                0.02854106016457081,
                0.01677076704800129,
                0.9967973232269287
            ],
            "scale" : [
                1,
                0.9999998807907104,
                1
            ],
            "translation" : [
                9.329892414200458e-09,
                0.9274899959564209,
                -0.08683998882770538
            ]
        },
        {
            "name" : "rFoot",
            "rotation" : [
                -0.795333206653595,
                0.0800546407699585,
                -0.0234280563890934,
                0.6004061698913574
            ],
            "scale" : [
                1,
                1.0000001192092896,
                1
            ],
            "translation" : [
                -2.2351741790771484e-08,
                1.7951231002807617,
                -7.450580596923828e-09
            ]
        },
        {
            "children" : [
                12
            ],
            "name" : "rShin",
            "rotation" : [
                0.1599913239479065,
                0.13920465111732483,
                0.013654783368110657,
                0.9771584272384644
            ],
            "scale" : [
                1.0000001192092896,
                1,
                1.0000001192092896
            ],
            "translation" : [
                -2.0178564597017612e-08,
                1.407280445098877,
                -1.7783676753424515e-09
            ]
        },
        {
            "children" : [
                13
            ],
            "name" : "rThigh",
            "rotation" : [
                -0.5147024989128113,
                -0.13487806916236877,
                0.0563928447663784,
                0.8448130488395691
            ],
            "scale" : [
                1,
                1.0000001192092896,
                1
            ],
            "translation" : [
                5.846752770821695e-08,
                0.12510889768600464,
                2.421439049271612e-08
            ]
        },
        {
            "children" : [
                14
            ],
            "name" : "rButtock",
            "rotation" : [
                -0.9106788039207458,
                1.4619477184396601e-08,
                -3.222744027198132e-08,
                0.4131152927875519
            ],
            "translation" : [
                -0.39502081274986267,
                0.19863943755626678,
                0.0434199683368206
            ]
        },
        {
            "name" : "lFoot",
            "rotation" : [
                -0.9056098461151123,
                -0.026499683037400246,
                0.10755424201488495,
                0.4093906581401825
            ],
            "translation" : [
                7.450580596923828e-09,
                1.7951233386993408,
                1.4901161193847656e-08
            ]
        },
        {
            "children" : [
                16
            ],
            "name" : "lShin",
            "rotation" : [
                0.0385725162923336,
                -0.13884417712688446,
                0.0039078728295862675,
                0.9895550608634949
            ],
            "scale" : [
                1,
                1.0000001192092896,
                1
            ],
            "translation" : [
                -2.0178562820660773e-08,
                1.407280445098877,
                -5.655344637034432e-09
            ]
        },
        {
            "children" : [
                17
            ],
            "name" : "lThigh",
            "rotation" : [
                -0.3916548490524292,
                0.37068071961402893,
                -0.11075105518102646,
                0.8348272442817688
            ],
            "scale" : [
                1,
                1.0000001192092896,
                1
            ],
            "translation" : [
                -1.1371166230844665e-09,
                0.12510883808135986,
                2.048909308882685e-08
            ]
        },
        {
            "children" : [
                18
            ],
            "name" : "lButtock",
            "rotation" : [
                -0.9106788039207458,
                1.4619477184396601e-08,
                -3.222744027198132e-08,
                0.4131152927875519
            ],
            "translation" : [
                0.3950207829475403,
                0.19863943755626678,
                0.04342005401849747
            ]
        },
        {
            "children" : [
                11,
                15,
                19
            ],
            "name" : "hip",
            "rotation" : [
                0.052104342728853226,
                -0.9063335657119751,
                0.0839761421084404,
                0.41084378957748413
            ],
            "scale" : [
                0.9999999403953552,
                0.9999999403953552,
                0.9999999403953552
            ],
            "translation" : [
                -0.33090516924858093,
                2.9585702419281006,
                -0.9119446873664856
            ]
        },
        {
            "mesh" : 0,
            "name" : "Cube",
            "skin" : 0
        },
        {
            "children" : [
                21,
                20
            ],
            "name" : "walk2_2"
        },
        {
            "name" : "Lamp",
            "rotation" : [
                0.16907575726509094,
                0.7558803558349609,
                -0.27217137813568115,
                0.570947527885437
            ],
            "translation" : [
                4.076245307922363,
                5.903861999511719,
                -1.0054539442062378
            ]
        },
        {
            "name" : "Camera",
            "rotation" : [
                0.48170700669288635,
                0.3342514932155609,
                -0.21292176842689514,
                0.7816000580787659
            ],
            "translation" : [
                7.481131553649902,
                5.34366512298584,
                6.5076398849487305
            ]
        }
    ],
    "materials" : [
        {
            "doubleSided" : true,
            "name" : "Material",
            "pbrMetallicRoughness" : {}
        },
        {
            "doubleSided" : true,
            "name" : "Material.001",
            "pbrMetallicRoughness" : {}
        },
        {
            "doubleSided" : true,
            "name" : "Material.002",
            "pbrMetallicRoughness" : {}
        }
    ],
    "meshes" : [
        {
            "name" : "Cube",
            "primitives" : [
                {
                    "attributes" : {
                        "POSITION" : 0,
                        "NORMAL" : 1,
                        "JOINTS_0" : 2,
                        "WEIGHTS_0" : 3
                    },
                    "indices" : 4,
                    "material" : 0
                },
                {
                    "attributes" : {
                        "POSITION" : 5,
                        "NORMAL" : 6,
                        "JOINTS_0" : 7,
                        "WEIGHTS_0" : 8
                    },
                    "indices" : 9,
                    "material" : 1
                },
                {
                    "attributes" : {
                        "POSITION" : 10,
                        "NORMAL" : 11,
                        "JOINTS_0" : 12,
                        "WEIGHTS_0" : 13
                    },
                    "indices" : 14,
                    "material" : 2
                }
            ]
        }
    ],
    "skins" : [
        {
            "inverseBindMatrices" : 15,
            "joints" : [
                20,
                11,
                10,
                1,
                0,
                5,
                4,
                3,
                2,
                9,
                8,
                7,
                6,
                15,
                14,
                13,
                12,
                19,
                18,
                17,
                16
            ],
            "name" : "walk2_2"
        }
    ],
    "accessors" : [
        {
            "bufferView" : 0,
            "componentType" : 5126,
            "count" : 2642,
            "max" : [
                2.98215913772583,
                2.961111068725586,
                0.6799999475479126
            ],
            "min" : [
                -2.98215913772583,
                -4.480169296264648,
                -0.52587890625
            ],
            "type" : "VEC3"
        },
        {
            "bufferView" : 1,
            "componentType" : 5126,
            "count" : 2642,
            "type" : "VEC3"
        },
        {
            "bufferView" : 2,
            "componentType" : 5123,
            "count" : 2642,
            "type" : "VEC4"
        },
        {
            "bufferView" : 3,
            "componentType" : 5126,
            "count" : 2642,
            "type" : "VEC4"
        },
        {
            "bufferView" : 4,
            "componentType" : 5123,
            "count" : 15804,
            "type" : "SCALAR"
        },
        {
            "bufferView" : 5,
            "componentType" : 5126,
            "count" : 32,
            "max" : [
                0.3255443572998047,
                2.4899086952209473,
                0.5162883400917053
            ],
            "min" : [
                -0.3235480785369873,
                2.190091371536255,
                0.4437117278575897
            ],
            "type" : "VEC3"
        },
        {
            "bufferView" : 6,
            "componentType" : 5126,
            "count" : 32,
            "type" : "VEC3"
        },
        {
            "bufferView" : 7,
            "componentType" : 5123,
            "count" : 32,
            "type" : "VEC4"
        },
        {
            "bufferView" : 8,
            "componentType" : 5126,
            "count" : 32,
            "type" : "VEC4"
        },
        {
            "bufferView" : 9,
            "componentType" : 5123,
            "count" : 96,
            "type" : "SCALAR"
        },
        {
            "bufferView" : 10,
            "componentType" : 5126,
            "count" : 18,
            "max" : [
                0.2309405356645584,
                2.392467975616455,
                0.4927009642124176
            ],
            "min" : [
                -0.22894424200057983,
                2.287531852722168,
                0.46729910373687744
            ],
            "type" : "VEC3"
        },
        {
            "bufferView" : 11,
            "componentType" : 5126,
            "count" : 18,
            "type" : "VEC3"
        },
        {
            "bufferView" : 12,
            "componentType" : 5123,
            "count" : 18,
            "type" : "VEC4"
        },
        {
            "bufferView" : 13,
            "componentType" : 5126,
            "count" : 18,
            "type" : "VEC4"
        },
        {
            "bufferView" : 14,
            "componentType" : 5123,
            "count" : 48,
            "type" : "SCALAR"
        },
        {
            "bufferView" : 15,
            "componentType" : 5126,
            "count" : 21,
            "type" : "MAT4"
        }
    ],
    "bufferViews" : [
        {
            "buffer" : 0,
            "byteLength" : 31704,
            "byteOffset" : 0
        },
        {
            "buffer" : 0,
            "byteLength" : 31704,
            "byteOffset" : 31704
        },
        {
            "buffer" : 0,
            "byteLength" : 21136,
            "byteOffset" : 63408
        },
        {
            "buffer" : 0,
            "byteLength" : 42272,
            "byteOffset" : 84544
        },
        {
            "buffer" : 0,
            "byteLength" : 31608,
            "byteOffset" : 126816
        },
        {
            "buffer" : 0,
            "byteLength" : 384,
            "byteOffset" : 158424
        },
        {
            "buffer" : 0,
            "byteLength" : 384,
            "byteOffset" : 158808
        },
        {
            "buffer" : 0,
            "byteLength" : 256,
            "byteOffset" : 159192
        },
        {
            "buffer" : 0,
            "byteLength" : 512,
            "byteOffset" : 159448
        },
        {
            "buffer" : 0,
            "byteLength" : 192,
            "byteOffset" : 159960
        },
        {
            "buffer" : 0,
            "byteLength" : 216,
            "byteOffset" : 160152
        },
        {
            "buffer" : 0,
            "byteLength" : 216,
            "byteOffset" : 160368
        },
        {
            "buffer" : 0,
            "byteLength" : 144,
            "byteOffset" : 160584
        },
        {
            "buffer" : 0,
            "byteLength" : 288,
            "byteOffset" : 160728
        },
        {
            "buffer" : 0,
            "byteLength" : 96,
            "byteOffset" : 161016
        },
        {
            "buffer" : 0,
            "byteLength" : 1344,
            "byteOffset" : 161112
        }
    ],
    "buffers" : [
        {
            "byteLength" : 162456,
            "uri" : "data:application/octet-stream;base64,"
        }
    ]
}
